<?xml version="1.0" encoding="utf-8"?>
<!-- Generator: Adobe Illustrator 26.2.1, SVG Export Plug-In . SVG Version: 6.00 Build 0)  -->
<svg version="1.1" id="Layer_1" xmlns="http://www.w3.org/2000/svg" xmlns:xlink="http://www.w3.org/1999/xlink" x="0px" y="0px"
	 viewBox="0 0 57.1 58.9" style="enable-background:new 0 0 57.1 58.9;" xml:space="preserve">
<style type="text/css">
	.st0{fill:#FFFFFF;}
	.st1{fill:#005AA9;}
	.st2{fill:#FFFFFF;stroke:#66328F;stroke-width:2.2282;stroke-miterlimit:10;}
	.st3{fill:#8CC642;}
	.st4{fill:#68368F;}
	.st5{fill:none;stroke:#66328F;stroke-width:2.205;stroke-miterlimit:10;}
	.st6{fill:#8BC541;}
	.st7{fill:#66328F;}
	.st8{fill:#FFFFFF;stroke:#66328F;stroke-width:2.2419;stroke-miterlimit:10;}
	.st9{fill:#8BC53F;}
	.st10{fill:none;stroke:#66328F;stroke-width:2.2609;stroke-miterlimit:10;}
	.st11{fill:#E3E3E3;}
	.st12{fill:#66328E;}
	.st13{fill:#FBFBFB;}
	.st14{fill:none;stroke:#66328F;stroke-width:2.121;stroke-miterlimit:10;}
	.st15{fill:none;stroke:#66328F;stroke-width:2.5711;stroke-miterlimit:10;}
	.st16{fill:#67358F;}
	.st17{fill:#67368F;}
	.st18{fill:#67398C;}
	.st19{fill:#67378E;}
	.st20{fill:#693F8A;}
	.st21{fill:#6B4587;}
	.st22{fill:#6B4388;}
	.st23{fill:#8CC542;}
	.st24{fill:#FFFFFF;stroke:#66328F;stroke-width:2.1937;stroke-miterlimit:10;}
	.st25{fill:#FFFFFF;stroke:#66328F;stroke-width:2.1366;stroke-miterlimit:10;}
	.st26{fill:#FFFFFF;stroke:#66328F;stroke-width:2.596;stroke-miterlimit:10;}
	.st27{fill:#FFFFFF;stroke:#66328F;stroke-width:2.2467;stroke-miterlimit:10;}
	.st28{fill:#FFFFFF;stroke:#66328F;stroke-width:2.3623;stroke-miterlimit:10;}
	.st29{fill:#FFFFFF;stroke:#66328F;stroke-width:2.2819;stroke-miterlimit:10;}
	.st30{fill:#FFFFFF;stroke:#66328F;stroke-width:1.9224;stroke-miterlimit:10;}
	.st31{fill:#FFFFFF;stroke:#66328F;stroke-width:2.4879;stroke-miterlimit:10;}
	.st32{fill:#FFFFFF;stroke:#66328F;stroke-width:2.2638;stroke-miterlimit:10;}
	.st33{fill:#FFFFFF;stroke:#66328F;stroke-width:2.0947;stroke-miterlimit:10;}
	.st34{fill:#FFFFFF;stroke:#66328F;stroke-width:2.1354;stroke-miterlimit:10;}
	.st35{fill:#8549BF;}
</style>
<path class="st5" d="M28.7,3.7C43.2,3.7,55,15.6,55,30.2c0,14.6-11.8,26.4-26.4,26.4c-14.6,0-26.4-11.8-26.4-26.4
	C2.3,15.6,14.1,3.7,28.7,3.7z"/>
<path class="st6" d="M28.7,6C42,6,52.7,16.8,52.7,30.2c0,13.3-10.8,24.1-24.1,24.1c-13.3,0-24.1-10.8-24.1-24.1
	C4.6,16.8,15.4,6,28.7,6z"/>
<g>
	<path class="st7" d="M26.4,27.6c0-0.4-0.1-0.9-0.1-1.3c0-0.5,0.1-0.6,0.5-0.6c0.3,0,0.7-0.1,1-0.1c0.2,0,0.3,0,0.3-0.3
		c0.1-0.5,0.2-1,0.3-1.5c0.3-1.4,1.2-2.4,2.6-2.8c1.2-0.4,2.5-0.7,3.7-1.1c0.1,0,0.2-0.1,0.3-0.1c-0.2-0.3,0-0.5,0.2-0.7
		c0.5-0.5,1-0.9,1.5-1.4c0.3-0.3,0.5-0.3,0.8,0c1.3,1.4,2.6,2.7,3.9,4.1c0.3,0.3,0.3,0.5,0,0.7c-0.5,0.5-1,1-1.6,1.5
		c-0.2,0.2-0.4,0.3-0.6,0.1c0,0-0.2,0-0.2,0.1c-0.4,0.3-0.7,0.6-1,1c-0.8,0.7-1.7,1.1-2.8,1c-0.1,0-0.2,0-0.3,0.1
		c-0.3,0.3-0.6,0.6-0.9,0.8c-0.1,0.1-0.2,0.2-0.2,0.4c0.1,1.4,0.2,2.8,0.2,4.2c0,0.1,0,0.2,0,0.4c0,0.3-0.1,0.4-0.4,0.4
		c-0.6,0.1-1.2,0.1-1.9,0.1c-0.2,0-0.4-0.1-0.4-0.4c0-0.1,0-0.2-0.1-0.3c-0.2-0.4-0.6-0.7-1.1-0.6c-0.5,0.1-0.9,0.5-0.9,1
		c0,0.4-0.1,0.5-0.5,0.6c-0.5,0-1.1,0.1-1.6,0.1c-0.3,0-0.5-0.1-0.5-0.5c0-0.4-0.1-0.8-0.1-1.3c0-0.1-0.1-0.2-0.1-0.2
		c-0.7-0.2-1.4-0.9-1.4-1.7C25.1,28.6,25.5,28,26.4,27.6C26.3,27.7,26.4,27.6,26.4,27.6z M29,25.6c0.9-0.1,1.7-0.1,2.5-0.2
		c0.1,0,0.3-0.1,0.4-0.2c0.4-0.3,0.8-0.7,1.2-1.1c0.2-0.2,0.5-0.2,0.6,0c0.2,0.2,0.1,0.4-0.1,0.6c-0.1,0.1-0.3,0.2-0.4,0.4
		c-0.3,0.3-0.7,0.5-0.9,0.9c0,0.1-0.1,0.1-0.2,0.1c-0.1,0.1-0.2,0.1-0.3,0.2c-0.2,0.2-0.4,0.4-0.7,0.6c-0.2,0.2-0.5,0.4-0.7,0.7
		c0.6,0.4,1.4,0.4,2-0.1c0.7-0.6,1.3-1.2,2-1.8c0.2-0.2,0.4-0.3,0.7-0.2c0.5,0.1,1.1,0,1.5-0.2c0.7-0.4,1.3-1.1,1.9-1.6
		c-0.9-1-1.9-2-2.8-3c-0.1-0.1-0.2-0.1-0.3,0c-1.4,0.4-2.9,0.8-4.3,1.3c-1,0.3-1.6,0.9-1.9,1.9C29.2,24.3,29.1,24.9,29,25.6z
		 M27.1,26.5c0,0.5,0.1,0.9,0.1,1.4c0,0.3-0.1,0.5-0.4,0.5c-0.6,0.1-0.9,0.5-0.9,1c0,0.5,0.4,0.9,1,1c0.5,0.1,0.5,0.1,0.6,0.6
		c0,0.4,0.1,0.8,0.1,1.2c0.4,0,0.7,0,1.1-0.1c0.3-0.9,0.9-1.5,1.7-1.6c0.8-0.1,1.4,0.3,1.9,1.2c0,0.1,0.1,0.1,0.1,0.1
		c0.3,0,0.7,0,1-0.1c-0.1-1.3-0.1-2.5-0.2-3.7c-0.1,0.1-0.1,0.1-0.1,0.1c-1,0.8-2.3,0.7-3.2-0.2c-0.2-0.2-0.2-0.5,0-0.7
		c0.3-0.2,0.5-0.5,0.8-0.7c0.1-0.1,0.2-0.1,0.3-0.2c0,0,0-0.1-0.1-0.1C29.5,26.4,28.3,26.4,27.1,26.5z M36,19.6
		c1.2,1.2,2.3,2.5,3.5,3.7c0.4-0.4,0.8-0.7,1.1-1.1c-1.2-1.2-2.3-2.5-3.5-3.7C36.8,18.9,36.4,19.3,36,19.6z"/>
	<path class="st7" d="M29.6,37.5c0.7-0.3,1.4-0.5,2.1-0.8c1.1-0.4,2.1-0.8,3.2-1.1c1-0.4,2.1,0.4,2,1.5c0,0.6-0.4,1-0.9,1.3
		c-1.5,0.8-3,1.6-4.6,2.4c-1,0.5-2,1-2.9,1.6c-0.7,0.4-1.5,0.5-2.3,0.3c-1.6-0.4-3.2-0.8-4.9-1.2c-0.5-0.1-0.9,0-1.4,0
		c-0.1,0-0.2,0.1-0.2,0.2c0,0.8,0,0.8-0.8,0.8c-0.6,0-1.3,0-1.9,0c-0.4,0-0.6-0.1-0.6-0.6c0-2,0-4,0-6.1c0-0.4,0.1-0.6,0.6-0.6
		c0.7,0,1.4,0,2.1,0c0.5,0,0.6,0.1,0.6,0.6c0,0.1,0,0.1,0,0.2c0.2,0,0.4-0.1,0.6-0.1c1.2-0.2,2.3-0.4,3.5-0.6c0.5-0.1,1-0.1,1.5-0.1
		c0.6,0,1.3,0,1.9,0.1c1.2,0.2,2,0.9,2.4,2.1C29.6,37.4,29.6,37.5,29.6,37.5z M28.8,37.7c-0.1-0.7-0.8-1.5-1.6-1.6
		c-1-0.1-2.1-0.1-3.1,0c-1.4,0.2-2.8,0.5-4.2,0.7c-0.2,0-0.2,0.1-0.2,0.3c0,1.1,0,2.2,0,3.3c0,0.1,0,0.1,0,0.2c0.1,0,0.1,0,0.2,0
		c0.5,0,1.1,0,1.6,0.1c1.6,0.4,3.2,0.8,4.8,1.2c0.6,0.2,1.2,0.1,1.8-0.2c2.5-1.3,4.9-2.6,7.4-3.9c0.1-0.1,0.2-0.1,0.3-0.2
		c0.2-0.2,0.3-0.4,0.2-0.7c-0.1-0.3-0.3-0.4-0.5-0.5c-0.1,0-0.3,0-0.4,0.1c-1.8,0.6-3.5,1.3-5.3,1.9c-0.1,0-0.2,0.1-0.2,0.1
		c-0.1,0.2-0.3,0.2-0.5,0.2c-1.4,0-2.7-0.1-4.1-0.1c-0.1,0-0.1,0-0.2,0c-0.2,0-0.3-0.2-0.3-0.4c0-0.2,0.1-0.4,0.3-0.4
		c0.1,0,0.2,0,0.3,0C26.3,37.7,27.6,37.7,28.8,37.7z M18.9,41.6c0-1.9,0-3.7,0-5.5c-0.6,0-1.1,0-1.6,0c0,1.9,0,3.7,0,5.5
		c0.5,0,1,0,1.4,0C18.7,41.6,18.8,41.6,18.9,41.6z"/>
	<path class="st7" d="M21.2,24.5c0.4,0,0.9,0,1.3,0c0.2,0,0.4,0,0.5,0.3c0.1,0.2,0,0.4-0.2,0.5c-1,1-2,2-3.1,3.1
		c-0.3,0.3-0.5,0.3-0.8,0c-1-1-2-2-3.1-3.1c-0.2-0.2-0.3-0.3-0.2-0.6c0.1-0.2,0.3-0.2,0.5-0.2c0.3,0,0.6,0,1,0c0.2,0,0.2,0,0.2-0.2
		c0.4-2.6,2.6-4.4,5.2-4.2c0.4,0,0.8,0.2,1.2,0.3c0.2,0.1,0.3,0.2,0.3,0.4c0,0.2-0.1,0.3-0.3,0.4c-0.7,0.3-1.3,0.6-1.8,1.2
		C21.4,22.9,21.1,23.6,21.2,24.5z M21.6,25.3c-0.2,0-0.4,0-0.6,0c-0.5,0-0.6-0.1-0.6-0.6c-0.1-1.4,0.4-2.6,1.5-3.4
		c0.2-0.1,0.3-0.3,0.5-0.4c0,0,0-0.1,0-0.1c-0.4,0.1-0.8,0.1-1.1,0.2c-1.8,0.4-3,1.9-3.1,3.7c0,0.4-0.1,0.6-0.5,0.6
		c-0.2,0-0.4,0-0.5,0c0.8,0.8,1.5,1.5,2.2,2.2C20.1,26.8,20.8,26.1,21.6,25.3z"/>
</g>
</svg>
